<svg width="55" height="55" viewBox="0 0 55 55" fill="none" xmlns="http://www.w3.org/2000/svg">
<path d="M27.1877 0C12.2457 0 0 12.2082 0 27.1877C0 42.1671 12.2082 54.3754 27.1877 54.3754C42.1671 54.3754 54.3754 42.1671 54.3754 27.1877C54.3754 12.2457 42.242 0 27.1877 0ZM46.4363 10.935H42.8787L44.7885 9.21236C45.4252 9.66174 45.9869 10.2984 46.4363 10.935ZM41.7927 47.8219V21.7951H38.6095L31.4943 28.461L37.7857 28.5358L12.77 47.8968C12.6951 47.8968 12.6951 47.8219 12.5827 47.8219L23.8922 33.6663H19.1737L27.9367 21.7951H6.40371V41.4182C3.63252 37.4112 2.02223 32.468 2.02223 27.1877C2.02223 13.2194 13.3317 1.90988 27.3 1.90988C31.4943 1.90988 35.314 2.92099 38.7968 4.75597L30.4832 16.1404H35.1268L22.9186 31.6441L47.5597 12.2831C50.668 16.4774 52.503 21.6079 52.503 27.2626C52.4655 35.6885 48.2713 43.2532 41.7927 47.8219Z" fill="#010101"/>
</svg>
