<svg width="247" height="55" viewBox="0 0 247 55" fill="none" xmlns="http://www.w3.org/2000/svg">
<path d="M27.1877 0C12.2457 0 0 12.2083 0 27.1877C0 42.1671 12.2083 54.3754 27.1877 54.3754C42.1671 54.3754 54.3754 42.1671 54.3754 27.1877C54.3754 12.2457 42.242 0 27.1877 0ZM46.4363 10.935H42.8787L44.7886 9.21236C45.4252 9.66174 45.9869 10.2984 46.4363 10.935ZM41.7927 47.8219V21.7951H38.6095L31.4943 28.461L37.7857 28.5358L12.77 47.8968C12.6951 47.8968 12.6951 47.8219 12.5827 47.8219L23.8922 33.6663H19.1737L27.9367 21.7951H6.40371V41.4182C3.63252 37.4112 2.02223 32.468 2.02223 27.1877C2.02223 13.2194 13.3317 1.90988 27.3 1.90988C31.4943 1.90988 35.314 2.92099 38.7968 4.75597L30.4832 16.1404H35.1268L22.9186 31.6441L47.5597 12.2831C50.668 16.4774 52.503 21.6079 52.503 27.2626C52.4655 35.6885 48.2713 43.2532 41.7927 47.8219Z" fill="white"/>
<path d="M65.8347 39.3584V35.314L82.5743 19.0987H65.8347V15.0168H88.1166V19.0987L71.3771 35.314H88.1166V39.3584H65.8347Z" fill="white"/>
<path d="M108.039 15.0168C112.496 15.0168 116.166 18.6494 116.166 23.1432V39.3584H101.973C97.5161 39.3584 93.8462 36.737 93.8462 32.2807C93.8462 27.8243 97.5536 26.0642 101.973 25.2029L112.121 23.1806C112.121 20.9337 110.286 19.1362 108.077 19.1362H96.505V15.0168H108.039ZM112.121 35.314V27.1876L101.973 29.2099C99.7256 29.6593 97.9281 29.9963 97.9281 32.2432C97.8906 34.4901 99.7256 35.2765 101.973 35.2765H112.121V35.314Z" fill="white"/>
<path d="M144.177 23.1432V31.2695C144.177 35.7634 140.545 39.3959 136.051 39.3959H125.902V52.5778H121.858V15.0168H136.051C140.545 15.0168 144.177 18.6494 144.177 23.1432ZM136.088 35.314C138.335 35.314 140.133 33.5165 140.133 31.2695V23.1432C140.133 20.8963 138.298 19.0987 136.088 19.0987H125.94V35.314H136.088Z" fill="white"/>
<path d="M171.081 31.1617C170.064 31.1617 169.152 30.9401 168.343 30.4968C167.548 30.0536 166.922 29.4343 166.466 28.639C166.01 27.8307 165.781 26.9245 165.781 25.9207C165.781 24.9168 166.01 24.0172 166.466 23.2219C166.922 22.4266 167.548 21.8073 168.343 21.364C169.152 20.9208 170.064 20.6991 171.081 20.6991C171.968 20.6991 172.757 20.8751 173.447 21.2271C174.152 21.5661 174.706 22.0681 175.11 22.733L174.073 23.437C173.734 22.9285 173.304 22.5505 172.783 22.3027C172.261 22.042 171.694 21.9116 171.081 21.9116C170.338 21.9116 169.667 22.0811 169.067 22.4201C168.48 22.746 168.017 23.2154 167.678 23.8281C167.352 24.4409 167.189 25.1384 167.189 25.9207C167.189 26.7159 167.352 27.42 167.678 28.0327C168.017 28.6325 168.48 29.1018 169.067 29.4408C169.667 29.7667 170.338 29.9297 171.081 29.9297C171.694 29.9297 172.261 29.8058 172.783 29.5581C173.304 29.3104 173.734 28.9323 174.073 28.4239L175.11 29.1279C174.706 29.7928 174.152 30.3013 173.447 30.6533C172.743 30.9923 171.955 31.1617 171.081 31.1617ZM179.167 22.7916C179.493 22.1007 179.976 21.5792 180.614 21.2271C181.266 20.8751 182.068 20.6991 183.02 20.6991V22.0485L182.687 22.029C181.605 22.029 180.758 22.3614 180.145 23.0263C179.532 23.6912 179.226 24.6234 179.226 25.8229V31.064H177.837V20.7773H179.167V22.7916ZM194.395 26.3509H185.79C185.869 27.42 186.279 28.287 187.022 28.9519C187.766 29.6038 188.704 29.9297 189.839 29.9297C190.477 29.9297 191.064 29.8189 191.599 29.5972C192.133 29.3626 192.596 29.0236 192.987 28.5803L193.769 29.4799C193.313 30.0275 192.739 30.4447 192.048 30.7315C191.37 31.0183 190.621 31.1617 189.799 31.1617C188.743 31.1617 187.805 30.9401 186.983 30.4968C186.175 30.0405 185.543 29.4147 185.086 28.6194C184.63 27.8241 184.402 26.9245 184.402 25.9207C184.402 24.9168 184.617 24.0172 185.047 23.2219C185.491 22.4266 186.09 21.8073 186.846 21.364C187.616 20.9208 188.476 20.6991 189.428 20.6991C190.38 20.6991 191.234 20.9208 191.99 21.364C192.746 21.8073 193.339 22.4266 193.769 23.2219C194.2 24.0041 194.415 24.9037 194.415 25.9207L194.395 26.3509ZM189.428 21.8921C188.437 21.8921 187.603 22.2115 186.925 22.8503C186.26 23.4761 185.882 24.2975 185.79 25.3144H193.085C192.994 24.2975 192.609 23.4761 191.931 22.8503C191.266 22.2115 190.432 21.8921 189.428 21.8921ZM200.553 20.6991C201.896 20.6991 202.926 21.0381 203.643 21.7161C204.36 22.381 204.718 23.3718 204.718 24.6886V31.064H203.389V29.4603C203.076 29.9949 202.613 30.4121 202 30.712C201.4 31.0118 200.683 31.1617 199.849 31.1617C198.702 31.1617 197.789 30.888 197.111 30.3404C196.433 29.7928 196.094 29.0692 196.094 28.1696C196.094 27.2961 196.407 26.5921 197.033 26.0576C197.672 25.523 198.682 25.2557 200.064 25.2557H203.33V24.6299C203.33 23.7434 203.082 23.072 202.587 22.6156C202.091 22.1463 201.368 21.9116 200.416 21.9116C199.764 21.9116 199.138 22.0224 198.539 22.2441C197.939 22.4527 197.424 22.746 196.994 23.1241L196.368 22.0876C196.889 21.6443 197.515 21.3054 198.245 21.0707C198.975 20.823 199.745 20.6991 200.553 20.6991ZM200.064 30.0666C200.846 30.0666 201.518 29.8906 202.078 29.5386C202.639 29.1735 203.056 28.652 203.33 27.9741V26.2922H200.103C198.343 26.2922 197.463 26.905 197.463 28.1305C197.463 28.7302 197.691 29.2061 198.147 29.5581C198.604 29.8971 199.243 30.0666 200.064 30.0666ZM213.907 30.4382C213.646 30.6728 213.32 30.8554 212.929 30.9857C212.551 31.1031 212.153 31.1617 211.736 31.1617C210.771 31.1617 210.028 30.901 209.507 30.3795C208.985 29.858 208.724 29.1214 208.724 28.1696V21.9507H206.886V20.7773H208.724V18.5284H210.113V20.7773H213.242V21.9507H210.113V28.0914C210.113 28.7042 210.263 29.1735 210.563 29.4995C210.876 29.8124 211.319 29.9688 211.892 29.9688C212.179 29.9688 212.453 29.9232 212.714 29.8319C212.988 29.7407 213.222 29.6103 213.418 29.4408L213.907 30.4382ZM216.434 20.7773H217.823V31.064H216.434V20.7773ZM217.138 18.5284C216.852 18.5284 216.61 18.4306 216.415 18.235C216.219 18.0395 216.121 17.8048 216.121 17.531C216.121 17.2703 216.219 17.0421 216.415 16.8465C216.61 16.651 216.852 16.5532 217.138 16.5532C217.425 16.5532 217.666 16.651 217.862 16.8465C218.058 17.0291 218.155 17.2507 218.155 17.5114C218.155 17.7983 218.058 18.0395 217.862 18.235C217.666 18.4306 217.425 18.5284 217.138 18.5284ZM230.33 20.7773L225.754 31.064H224.326L219.77 20.7773H221.217L225.07 29.5386L228.961 20.7773H230.33ZM240.956 26.3509H232.351C232.429 27.42 232.84 28.287 233.583 28.9519C234.326 29.6038 235.265 29.9297 236.399 29.9297C237.038 29.9297 237.625 29.8189 238.159 29.5972C238.694 29.3626 239.157 29.0236 239.548 28.5803L240.33 29.4799C239.874 30.0275 239.3 30.4447 238.609 30.7315C237.931 31.0183 237.182 31.1617 236.36 31.1617C235.304 31.1617 234.366 30.9401 233.544 30.4968C232.736 30.0405 232.104 29.4147 231.647 28.6194C231.191 27.8241 230.963 26.9245 230.963 25.9207C230.963 24.9168 231.178 24.0172 231.608 23.2219C232.051 22.4266 232.651 21.8073 233.407 21.364C234.176 20.9208 235.037 20.6991 235.989 20.6991C236.94 20.6991 237.794 20.9208 238.551 21.364C239.307 21.8073 239.9 22.4266 240.33 23.2219C240.76 24.0041 240.976 24.9037 240.976 25.9207L240.956 26.3509ZM235.989 21.8921C234.998 21.8921 234.163 22.2115 233.486 22.8503C232.821 23.4761 232.443 24.2975 232.351 25.3144H239.646C239.554 24.2975 239.17 23.4761 238.492 22.8503C237.827 22.2115 236.993 21.8921 235.989 21.8921ZM243.939 31.1617C243.652 31.1617 243.404 31.0574 243.196 30.8488C243 30.6402 242.902 30.386 242.902 30.0861C242.902 29.7863 243 29.5386 243.196 29.343C243.404 29.1344 243.652 29.0301 243.939 29.0301C244.225 29.0301 244.473 29.1344 244.682 29.343C244.89 29.5386 244.995 29.7863 244.995 30.0861C244.995 30.386 244.89 30.6402 244.682 30.8488C244.473 31.0574 244.225 31.1617 243.939 31.1617Z" fill="white"/>
<path d="M157.097 9.62427H156.423V41.5679H157.097V9.62427Z" fill="white"/>
</svg>
