<svg width="15" height="15" viewBox="0 0 15 15" fill="none" xmlns="http://www.w3.org/2000/svg">
<path d="M5.11481 1.8208H9.88518C11.7025 1.8208 13.179 3.29734 13.179 5.11463V9.885C13.179 10.7586 12.832 11.5964 12.2143 12.2141C11.5966 12.8318 10.7588 13.1788 9.88518 13.1788H5.11481C3.29753 13.1788 1.82098 11.7023 1.82098 9.885V5.11463C1.82098 4.24105 2.16801 3.40325 2.78572 2.78554C3.40344 2.16783 4.24123 1.8208 5.11481 1.8208ZM5.00123 2.9566C4.45901 2.9566 3.939 3.172 3.55559 3.55541C3.17218 3.93882 2.95679 4.45883 2.95679 5.00105V9.99858C2.95679 11.1287 3.87111 12.043 5.00123 12.043H9.99876C10.541 12.043 11.061 11.8276 11.4444 11.4442C11.8278 11.0608 12.0432 10.5408 12.0432 9.99858V5.00105C12.0432 3.87092 11.1289 2.9566 9.99876 2.9566H5.00123ZM10.4815 3.80846C10.6697 3.80846 10.8503 3.88325 10.9834 4.01637C11.1166 4.1495 11.1914 4.33006 11.1914 4.51833C11.1914 4.7066 11.1166 4.88716 10.9834 5.02029C10.8503 5.15342 10.6697 5.22821 10.4815 5.22821C10.2932 5.22821 10.1126 5.15342 9.97952 5.02029C9.84639 4.88716 9.7716 4.7066 9.7716 4.51833C9.7716 4.33006 9.84639 4.1495 9.97952 4.01637C10.1126 3.88325 10.2932 3.80846 10.4815 3.80846ZM7.5 4.66031C8.25308 4.66031 8.97532 4.95947 9.50783 5.49198C10.0403 6.02449 10.3395 6.74673 10.3395 7.49981C10.3395 8.2529 10.0403 8.97514 9.50783 9.50765C8.97532 10.0402 8.25308 10.3393 7.5 10.3393C6.74691 10.3393 6.02467 10.0402 5.49216 9.50765C4.95965 8.97514 4.66049 8.2529 4.66049 7.49981C4.66049 6.74673 4.95965 6.02449 5.49216 5.49198C6.02467 4.95947 6.74691 4.66031 7.5 4.66031ZM7.5 5.79611C7.04815 5.79611 6.6148 5.97561 6.2953 6.29511C5.97579 6.61462 5.79629 7.04796 5.79629 7.49981C5.79629 7.95166 5.97579 8.38501 6.2953 8.70451C6.6148 9.02402 7.04815 9.20352 7.5 9.20352C7.95185 9.20352 8.38519 9.02402 8.7047 8.70451C9.0242 8.38501 9.2037 7.95166 9.2037 7.49981C9.2037 7.04796 9.0242 6.61462 8.7047 6.29511C8.38519 5.97561 7.95185 5.79611 7.5 5.79611Z" fill="white"/>
</svg>
