<svg width="14" height="13" viewBox="0 0 14 13" fill="none" xmlns="http://www.w3.org/2000/svg">
<path d="M4.00973 2.77336C4.00959 3.05576 3.89726 3.32655 3.69747 3.52614C3.49768 3.72573 3.22679 3.83778 2.94438 3.83764C2.66197 3.8375 2.39119 3.72518 2.1916 3.52538C1.99201 3.32559 1.87996 3.0547 1.8801 2.77229C1.88024 2.48988 1.99256 2.2191 2.19235 2.01951C2.39214 1.81992 2.66304 1.70787 2.94544 1.70801C3.22785 1.70815 3.49863 1.82047 3.69823 2.02026C3.89782 2.22005 4.00987 2.49095 4.00973 2.77336ZM4.04167 4.62613H1.91204V11.2919H4.04167V4.62613ZM7.40649 4.62613H5.2875V11.2919H7.38519V7.79396C7.38519 5.84535 9.92477 5.66433 9.92477 7.79396V11.2919H12.0278V7.06988C12.0278 3.78493 8.26899 3.90738 7.38519 5.52058L7.40649 4.62613Z" fill="white"/>
</svg>
