<svg width="13" height="9" viewBox="0 0 13 9" fill="none" xmlns="http://www.w3.org/2000/svg">
<path d="M4.41344 0.666992C4.75749 0.666992 5.07569 0.694373 5.36643 0.775421C5.65771 0.829635 5.89622 0.938063 6.10782 1.07332C6.31995 1.20913 6.47879 1.39861 6.58431 1.6423C6.69038 1.88599 6.74368 2.18444 6.74368 2.50918C6.74368 2.88868 6.664 3.21342 6.47879 3.45711C6.31995 3.70134 6.05506 3.91765 5.73739 4.0803C6.18751 4.2161 6.53155 4.45979 6.74368 4.78508C6.95528 5.10982 7.08773 5.51615 7.08773 5.9767C7.08773 6.35619 7.00804 6.68093 6.87559 6.952C6.74368 7.22307 6.53155 7.46676 6.29303 7.62941C6.03393 7.80373 5.74753 7.93188 5.44611 8.00836C5.12845 8.08995 4.81079 8.14417 4.49313 8.14417H0.944458V0.666992H4.41344ZM4.20131 3.7008C4.49259 3.7008 4.7311 3.61975 4.91632 3.48449C5.10153 3.34923 5.18121 3.10499 5.18121 2.80708C5.18121 2.64444 5.15429 2.48235 5.10153 2.37392C5.04877 2.26549 4.96908 2.18389 4.86355 2.10285C4.75749 2.04863 4.65142 1.99442 4.51897 1.96758C4.38652 1.9402 4.25461 1.9402 4.09524 1.9402H2.55969V3.70134L4.20131 3.7008ZM4.28099 6.89779C4.43982 6.89779 4.59865 6.87041 4.7311 6.84358C4.86355 6.81619 4.996 6.76253 5.10153 6.68093C5.20942 6.60166 5.29968 6.50015 5.36643 6.38303C5.41919 6.24777 5.4725 6.08512 5.4725 5.89565C5.4725 5.51615 5.36643 5.24508 5.15483 5.0556C4.9427 4.89296 4.65142 4.81191 4.30737 4.81191H2.55969V6.89834L4.28099 6.89779ZM9.39159 6.87041C9.60319 7.08727 9.92085 7.19569 10.3446 7.19569C10.6359 7.19569 10.9008 7.11465 11.1124 6.97938C11.3245 6.81674 11.4569 6.6541 11.5097 6.49201H12.8073C12.5951 7.14148 12.2775 7.60203 11.8543 7.90048C11.43 8.171 10.9271 8.33364 10.3182 8.33364C9.92858 8.33487 9.54224 8.2613 9.17946 8.11679C8.853 7.99227 8.56188 7.78759 8.332 7.52098C8.0861 7.27158 7.90434 6.96446 7.80274 6.62672C7.67029 6.2746 7.61699 5.89565 7.61699 5.46194C7.61699 5.0556 7.67029 4.67665 7.80274 4.32399C7.9303 3.98466 8.11892 3.67249 8.35892 3.40344C8.60072 3.1509 8.88832 2.94839 9.20584 2.80708C9.55941 2.66255 9.93713 2.58891 10.3182 2.59023C10.7683 2.59023 11.1657 2.67182 11.5097 2.8613C11.8543 3.05077 12.1186 3.26763 12.3302 3.59292C12.5424 3.89082 12.7017 4.24294 12.8073 4.62244C12.86 5.00139 12.8864 5.38089 12.86 5.81405H9.02062C9.02062 6.24777 9.17946 6.65355 9.39159 6.87041ZM11.0596 4.02608C10.8744 3.83661 10.5831 3.72818 10.2385 3.72818C10.0005 3.72818 9.81478 3.78294 9.65595 3.86399C9.49712 3.94503 9.39159 4.05346 9.28552 4.16189C9.18788 4.26658 9.1232 4.39853 9.09977 4.54084C9.07339 4.67665 9.04701 4.78508 9.04701 4.89296H11.43C11.3773 4.48663 11.2448 4.2161 11.0596 4.02608ZM8.72934 1.18175H11.6949V1.91337H8.72988L8.72934 1.18175Z" fill="white"/>
</svg>
